<?xml version="1.0" standalone="no"?>
<!DOCTYPE svg PUBLIC "-//W3C//DTD SVG 20010904//EN"
 "http://www.w3.org/TR/2001/REC-SVG-20010904/DTD/svg10.dtd">
<svg version="1.0" xmlns="http://www.w3.org/2000/svg"
 width="1117.000000pt" height="152.000000pt" viewBox="0 0 1117.000000 152.000000"
 preserveAspectRatio="xMidYMid meet">

<g transform="translate(0.000000,152.000000) scale(0.100000,-0.100000)"
fill="#000000" stroke="none">
<path d="M5120 878 l0 -518 130 0 130 0 0 90 c0 91 0 91 37 130 20 22 40 40
44 40 4 0 54 -58 111 -130 l103 -130 159 0 c125 0 156 3 149 12 -6 7 -78 100
-162 206 -84 106 -154 199 -156 205 -2 7 63 82 144 167 l149 155 -150 3 -149
3 -137 -131 -137 -131 -5 273 -5 273 -128 0 -127 0 0 -517z"/>
<path d="M2035 1350 c-214 -24 -339 -140 -339 -315 0 -154 88 -232 324 -286
154 -36 209 -58 225 -89 34 -66 -26 -110 -149 -110 -98 0 -164 15 -255 56 -41
19 -75 33 -77 32 -1 -2 -21 -45 -44 -96 -32 -73 -39 -96 -30 -107 16 -20 132
-62 218 -80 96 -20 267 -20 345 1 173 45 267 150 267 298 0 84 -24 142 -78
186 -55 45 -103 64 -261 104 -169 43 -190 52 -210 88 -14 25 -14 29 5 55 30
41 69 56 143 56 76 1 153 -16 228 -48 l51 -23 42 100 c33 80 39 103 28 109
-48 32 -289 84 -358 78 -8 -1 -42 -5 -75 -9z"/>
<path d="M6510 850 l0 -490 135 0 135 0 2 260 3 260 215 -260 215 -260 118 0
117 0 -2 488 -3 487 -132 3 -133 3 -2 -266 -3 -266 -220 266 -220 265 -112 0
-113 0 0 -490z"/>
<path d="M7650 850 l0 -490 370 0 370 0 0 105 0 105 -235 0 -235 0 0 385 0
385 -135 0 -135 0 0 -490z"/>
<path d="M8510 851 l0 -491 135 0 135 0 0 125 0 125 88 0 c224 0 336 33 428
124 73 73 98 135 98 241 0 167 -93 285 -269 341 -39 12 -113 17 -332 21 l-283
6 0 -492z m530 251 c19 -9 45 -32 57 -51 46 -69 19 -165 -57 -203 -27 -14 -60
-18 -147 -18 l-113 0 0 145 0 145 113 0 c87 0 120 -4 147 -18z"/>
<path d="M3065 1120 c-65 -10 -94 -22 -133 -55 l-32 -27 0 36 0 36 -125 0
-125 0 0 -515 0 -515 130 0 130 0 0 170 0 170 45 -29 c129 -82 320 -54 435 63
113 113 140 316 65 472 -67 138 -230 218 -390 194z m93 -227 c56 -42 67 -68
67 -158 0 -69 -4 -88 -21 -111 -35 -47 -70 -67 -126 -72 -44 -3 -59 0 -88 20
-60 41 -80 81 -80 160 0 92 32 149 100 177 37 16 117 7 148 -16z"/>
<path d="M3845 1119 c-73 -7 -181 -39 -221 -65 l-23 -16 41 -81 c22 -45 41
-83 42 -84 1 -1 31 10 66 24 80 33 196 38 246 11 28 -16 64 -70 64 -97 0 -7
-39 -11 -120 -11 -176 0 -262 -23 -322 -87 -36 -38 -48 -73 -48 -140 0 -137
105 -225 270 -227 93 -1 156 20 202 67 l38 39 0 -46 0 -46 121 0 120 0 -3 268
c-4 285 -6 299 -61 376 -63 89 -226 135 -412 115z m215 -485 c0 -75 -57 -124
-144 -124 -57 0 -96 32 -96 78 0 55 50 80 163 81 l77 1 0 -36z"/>
<path d="M4935 1120 c-63 -9 -111 -30 -152 -64 l-33 -28 0 41 0 41 -125 0
-125 0 0 -375 0 -375 130 0 130 0 0 199 c0 117 4 211 11 228 25 67 86 105 171
106 l58 0 0 119 c0 65 -3 117 -7 117 -5 -1 -30 -5 -58 -9z"/>
</g>
</svg>
