<?xml version="1.0" encoding="UTF-8"?>
<svg xmlns="http://www.w3.org/2000/svg" xmlns:xlink="http://www.w3.org/1999/xlink" width="100px" height="100px" viewBox="0 0 100 100" version="1.1">
<g id="surface1">
<path style=" stroke:none;fill-rule:nonzero;fill:rgb(43.921569%,60%,65.098039%);fill-opacity:1;" d="M 10.480469 4.621094 L 10.480469 9.265625 L 8.722656 9.265625 L 8.722656 12.28125 L 10.480469 12.28125 L 10.480469 21.527344 L 11.171875 21.527344 L 11.171875 12.28125 L 12.972656 12.28125 L 12.972656 9.265625 L 11.171875 9.265625 L 11.171875 0 L 10.480469 0 Z M 10.480469 4.621094 "/>
<path style=" stroke:none;fill-rule:nonzero;fill:rgb(92.156863%,56.862745%,17.254902%);fill-opacity:1;" d="M 4.730469 16.394531 L 4.730469 23.132812 L 2.066406 23.132812 L 2.066406 27.359375 L 4.730469 27.359375 L 4.730469 41.039062 L 5.71875 41.039062 L 5.71875 27.359375 L 8.421875 27.359375 L 8.421875 23.132812 L 5.71875 23.132812 L 5.71875 9.660156 L 4.730469 9.660156 Z M 4.730469 16.394531 "/>
<path style=" stroke:none;fill-rule:nonzero;fill:rgb(34.901961%,52.941176%,60.784314%);fill-opacity:1;" d="M 15.894531 16.394531 L 15.894531 23.132812 L 13.230469 23.132812 L 13.230469 27.566406 L 15.894531 27.566406 L 15.894531 41.039062 L 16.921875 41.039062 L 16.921875 27.566406 L 19.585938 27.566406 L 19.585938 23.132812 L 16.921875 23.132812 L 16.921875 9.660156 L 15.894531 9.660156 Z M 15.894531 16.394531 "/>
<path style=" stroke:none;fill-rule:evenodd;fill:rgb(12.156863%,26.666667%,49.411765%);fill-opacity:1;" d="M 64.496094 20.113281 L 65.871094 20.113281 L 65.871094 77.472656 L 64.496094 77.472656 Z M 53.136719 26.152344 L 54.535156 26.152344 L 54.535156 34.113281 C 54.535156 41.585938 54.542969 42.039062 54.609375 41.945312 C 54.652344 41.867188 54.863281 41.605469 55.074219 41.320312 C 55.324219 41 55.628906 40.792969 55.953125 40.699219 C 56.320312 40.621094 56.539062 40.679688 56.808594 40.925781 C 57.042969 41.132812 57.316406 41.585938 57.5625 42.152344 C 57.773438 42.640625 58.054688 43.472656 58.1875 44.019531 C 58.3125 44.546875 58.519531 45.660156 58.632812 46.492188 C 58.753906 47.320312 58.902344 48.640625 58.964844 49.453125 C 59.035156 50.246094 59.117188 51.734375 59.15625 52.773438 C 59.207031 54.132812 59.21875 55.300781 59.203125 57.152344 C 59.191406 58.527344 59.144531 60.246094 59.105469 60.960938 C 59.070312 61.679688 58.972656 62.90625 58.898438 63.679688 C 58.820312 64.453125 58.671875 65.640625 58.5625 66.300781 C 58.457031 66.960938 58.246094 67.945312 58.09375 68.492188 C 57.945312 69.039062 57.675781 69.792969 57.496094 70.167969 C 57.320312 70.566406 57.03125 71.054688 56.855469 71.28125 C 56.578125 71.640625 56.402344 71.699219 55.609375 71.71875 C 54.863281 71.734375 54.617188 71.660156 54.320312 71.359375 C 54.121094 71.152344 53.789062 70.753906 53.589844 70.492188 C 53.390625 70.226562 53.214844 69.925781 53.199219 69.847656 C 53.183594 69.773438 53.160156 59.925781 53.152344 47.945312 Z M 54.878906 47.621094 L 54.558594 48.152344 L 54.558594 64.886719 C 55.230469 65.71875 55.375 65.773438 55.820312 65.71875 C 56.261719 65.660156 56.40625 65.566406 56.617188 65.1875 C 56.757812 64.925781 56.953125 64.433594 57.046875 64.074219 C 57.140625 63.734375 57.277344 63.09375 57.351562 62.660156 C 57.421875 62.226562 57.527344 61.320312 57.578125 60.660156 C 57.632812 60 57.699219 58.734375 57.722656 57.847656 C 57.757812 56.640625 57.757812 55.8125 57.71875 54.527344 C 57.6875 53.378906 57.617188 52.339844 57.519531 51.359375 C 57.4375 50.546875 57.296875 49.546875 57.210938 49.132812 C 57.121094 48.71875 56.960938 48.132812 56.855469 47.847656 C 56.75 47.546875 56.546875 47.167969 56.402344 47 C 56.261719 46.8125 56.011719 46.679688 55.847656 46.699219 C 55.683594 46.71875 55.464844 46.8125 55.375 46.90625 C 55.277344 47 55.058594 47.320312 54.878906 47.621094 Z M 30.40625 28.167969 L 31.777344 28.167969 L 31.777344 46.472656 L 35.46875 46.472656 L 35.46875 52.507812 L 31.777344 52.507812 L 31.777344 72.226562 L 30.40625 72.226562 L 30.40625 52.507812 L 26.714844 52.507812 L 26.714844 46.472656 L 30.40625 46.472656 Z M 30.40625 28.167969 "/>
<path style=" stroke:none;fill-rule:nonzero;fill:rgb(90.980392%,46.27451%,17.254902%);fill-opacity:1;" d="M 10.226562 39.339844 L 10.226562 46.886719 L 7.261719 46.886719 L 7.261719 52.507812 L 10.226562 52.507812 L 10.226562 67.605469 L 11.425781 67.605469 L 11.425781 52.507812 L 14.390625 52.507812 L 14.390625 46.886719 L 11.425781 46.886719 L 11.425781 31.792969 L 10.226562 31.792969 Z M 10.226562 39.339844 "/>
<path style=" stroke:none;fill-rule:nonzero;fill:rgb(35.686275%,39.607843%,56.862745%);fill-opacity:1;" d="M 18.941406 43.152344 L 18.941406 47.886719 L 17.136719 47.886719 L 17.136719 51.71875 L 18.941406 51.71875 L 18.941406 61.167969 L 19.84375 61.167969 L 19.84375 51.71875 L 21.644531 51.71875 L 21.644531 47.886719 L 19.84375 47.886719 L 19.84375 38.433594 L 18.941406 38.433594 Z M 18.941406 43.152344 "/>
<path style=" stroke:none;fill-rule:nonzero;fill:rgb(43.921569%,60%,65.098039%);fill-opacity:1;" d="M 1.765625 43.566406 L 1.765625 48.09375 L 0.0078125 48.09375 L 0.0078125 51.300781 L 1.765625 51.300781 L 1.765625 60.359375 L 2.453125 60.359375 L 2.453125 51.300781 L 4.257812 51 L 4.257812 48.09375 L 2.453125 48.09375 L 2.453125 39.039062 L 1.765625 39.039062 Z M 1.765625 43.566406 "/>
<path style=" stroke:none;fill-rule:evenodd;fill:rgb(12.156863%,26.666667%,49.411765%);fill-opacity:1;" d="M 45.132812 40.433594 L 46.507812 40.433594 L 46.507812 52.359375 C 46.507812 58.925781 46.488281 65.585938 46.441406 70.039062 L 46.097656 70.527344 C 45.910156 70.792969 45.515625 71.207031 45.21875 71.453125 C 44.765625 71.8125 44.5625 71.847656 43.910156 71.773438 C 43.304688 71.699219 43.0625 71.585938 42.792969 71.265625 C 42.601562 71.019531 42.273438 70.433594 42.0625 69.945312 C 41.839844 69.414062 41.570312 68.585938 41.417969 67.960938 C 41.277344 67.359375 41.078125 66.28125 40.980469 65.585938 C 40.882812 64.867188 40.75 63.734375 40.695312 63.074219 C 40.636719 62.414062 40.554688 61.09375 40.515625 60.167969 C 40.457031 58.8125 40.445312 57.8125 40.460938 55.433594 C 40.480469 53.152344 40.511719 52.039062 40.578125 50.90625 C 40.628906 50.074219 40.75 48.71875 40.84375 47.886719 C 40.933594 47.054688 41.117188 45.792969 41.253906 45.09375 C 41.394531 44.378906 41.621094 43.433594 41.761719 42.980469 C 41.902344 42.546875 42.132812 41.960938 42.277344 41.699219 C 42.417969 41.433594 42.675781 41.074219 42.847656 40.925781 C 43.019531 40.773438 43.339844 40.640625 43.554688 40.640625 C 43.773438 40.640625 44.085938 40.792969 44.253906 40.945312 C 44.417969 41.113281 44.679688 41.527344 44.835938 41.867188 C 44.984375 42.1875 45.117188 42.472656 45.121094 42.453125 C 45.125 42.453125 45.132812 42 45.132812 41.453125 Z M 42.796875 47.847656 C 42.683594 48.152344 42.515625 48.773438 42.421875 49.246094 C 42.328125 49.71875 42.207031 50.546875 42.148438 51.113281 C 42.089844 51.660156 42.015625 52.679688 41.976562 53.378906 C 41.941406 54.054688 41.914062 55.300781 41.914062 56.132812 C 41.914062 56.960938 41.933594 58.1875 41.957031 58.847656 C 41.984375 59.507812 42.058594 60.605469 42.125 61.265625 C 42.207031 62.054688 42.335938 62.867188 42.496094 63.585938 C 42.65625 64.28125 42.847656 64.867188 43.011719 65.167969 C 43.210938 65.546875 43.371094 65.660156 43.78125 65.753906 C 44.074219 65.8125 44.441406 65.734375 44.636719 65.605469 C 44.824219 65.472656 45.003906 65.300781 45.03125 65.226562 C 45.0625 65.132812 45.085938 62.507812 45.105469 56.886719 L 45.132812 48.699219 C 44.78125 47.792969 44.585938 47.378906 44.464844 47.1875 C 44.351562 46.980469 44.078125 46.792969 43.867188 46.753906 C 43.601562 46.699219 43.40625 46.773438 43.242188 47 C 43.113281 47.167969 42.914062 47.546875 42.796875 47.847656 Z M 87.597656 40.433594 L 88.96875 40.433594 L 88.96875 50.546875 C 88.96875 56.113281 88.957031 62.773438 88.90625 70.039062 L 88.5625 70.527344 C 88.375 70.792969 87.992188 71.207031 87.714844 71.414062 C 87.359375 71.71875 87.019531 71.832031 86.558594 71.832031 C 86.195312 71.832031 85.773438 71.734375 85.621094 71.621094 C 85.46875 71.492188 85.171875 71.132812 84.957031 70.8125 C 84.730469 70.472656 84.433594 69.8125 84.25 69.246094 C 84.070312 68.699219 83.820312 67.734375 83.695312 67.074219 C 83.570312 66.433594 83.394531 65.300781 83.308594 64.585938 C 83.226562 63.867188 83.109375 62.546875 83.054688 61.679688 C 82.96875 60.414062 82.945312 59.433594 82.925781 57.152344 C 82.914062 55.320312 82.925781 53.699219 82.957031 52.8125 C 82.984375 52.039062 83.058594 50.734375 83.117188 49.90625 C 83.175781 49.074219 83.304688 47.753906 83.410156 46.980469 C 83.511719 46.207031 83.726562 44.980469 83.890625 44.265625 C 84.074219 43.472656 84.3125 42.660156 84.511719 42.207031 C 84.6875 41.8125 84.941406 41.320312 85.085938 41.132812 C 85.226562 40.960938 85.574219 40.753906 85.859375 40.699219 C 86.238281 40.621094 86.457031 40.699219 86.695312 40.925781 C 86.875 41.113281 87.140625 41.527344 87.296875 41.867188 C 87.449219 42.1875 87.582031 42.472656 87.585938 42.453125 C 87.59375 42.453125 87.597656 42 87.597656 41.453125 Z M 85.261719 47.847656 C 85.144531 48.152344 84.976562 48.773438 84.886719 49.246094 C 84.792969 49.71875 84.675781 50.546875 84.613281 51.113281 C 84.554688 51.660156 84.476562 52.679688 84.441406 53.378906 C 84.40625 54.054688 84.378906 55.394531 84.378906 56.339844 C 84.378906 57.28125 84.40625 58.621094 84.441406 59.300781 C 84.476562 60 84.546875 60.945312 84.597656 61.414062 C 84.648438 61.886719 84.78125 62.71875 84.890625 63.246094 C 84.996094 63.792969 85.175781 64.433594 85.277344 64.679688 C 85.386719 64.945312 85.578125 65.300781 85.710938 65.472656 C 85.859375 65.679688 86.101562 65.792969 86.386719 65.792969 C 86.625 65.792969 86.964844 65.699219 87.132812 65.585938 C 87.304688 65.472656 87.46875 65.300781 87.492188 65.226562 C 87.53125 65.132812 87.550781 62.699219 87.5625 56.867188 L 87.574219 48.621094 C 87.140625 47.585938 86.902344 47.152344 86.757812 46.980469 C 86.617188 46.8125 86.378906 46.679688 86.222656 46.699219 C 86.070312 46.699219 85.839844 46.847656 85.710938 47 C 85.578125 47.167969 85.378906 47.546875 85.261719 47.847656 Z M 74.71875 40.734375 C 74.964844 40.792969 75.28125 40.980469 75.425781 41.152344 C 75.566406 41.320312 75.796875 41.71875 75.9375 42.039062 C 76.082031 42.339844 76.3125 43 76.453125 43.507812 C 76.597656 44.019531 76.796875 44.960938 76.902344 45.605469 C 77.007812 46.246094 77.152344 47.414062 77.234375 48.1875 C 77.3125 48.960938 77.417969 50.320312 77.464844 51.207031 C 77.515625 52.09375 77.570312 53.886719 77.613281 57.546875 L 72.871094 57.546875 L 72.898438 58.300781 C 72.910156 58.71875 72.960938 59.605469 73.003906 60.265625 C 73.046875 60.925781 73.15625 61.960938 73.246094 62.546875 C 73.335938 63.132812 73.464844 63.832031 73.535156 64.074219 C 73.605469 64.320312 73.75 64.734375 73.859375 65 C 73.960938 65.246094 74.144531 65.566406 74.265625 65.71875 C 74.386719 65.867188 74.707031 66 74.992188 66 C 75.277344 66 75.6875 65.867188 75.898438 65.699219 C 76.109375 65.527344 76.410156 65.1875 76.5625 64.960938 C 76.714844 64.734375 76.914062 64.378906 77.003906 64.167969 C 77.089844 63.960938 77.183594 63.773438 77.207031 63.773438 C 77.234375 63.773438 77.25 64.925781 77.25 69.8125 L 77.015625 70.320312 C 76.882812 70.605469 76.609375 71.054688 76.402344 71.339844 C 76.195312 71.605469 75.8125 71.945312 75.554688 72.074219 C 75.199219 72.246094 74.957031 72.246094 74.585938 72.074219 C 74.3125 71.945312 73.917969 71.605469 73.707031 71.320312 C 73.492188 71.039062 73.1875 70.472656 73.027344 70.054688 C 72.863281 69.640625 72.585938 68.679688 72.410156 67.90625 C 72.230469 67.132812 72.007812 65.867188 71.902344 65.09375 C 71.796875 64.320312 71.671875 63 71.609375 62.167969 C 71.550781 61.339844 71.476562 59.886719 71.449219 58.960938 C 71.417969 57.925781 71.410156 56.472656 71.425781 55.339844 C 71.4375 54.28125 71.488281 52.699219 71.539062 51.8125 C 71.585938 50.925781 71.703125 49.472656 71.792969 48.585938 C 71.886719 47.699219 72.058594 46.433594 72.171875 45.773438 C 72.285156 45.113281 72.515625 44.09375 72.679688 43.507812 C 72.84375 42.925781 73.117188 42.1875 73.289062 41.847656 C 73.5 41.460938 73.714844 41.15625 73.933594 40.945312 C 74.152344 40.753906 74.417969 40.679688 74.71875 40.734375 Z M 73.777344 47.945312 C 73.648438 48.300781 73.46875 49 73.375 49.492188 C 73.28125 50 73.15625 50.832031 73.101562 51.359375 C 73.046875 51.886719 72.996094 52.394531 72.996094 52.507812 C 72.996094 52.640625 73.539062 52.71875 74.535156 52.71875 L 76.070312 52.71875 C 76.027344 51.226562 75.984375 50.492188 75.953125 50.09375 C 75.917969 49.71875 75.8125 49 75.722656 48.527344 C 75.609375 47.945312 75.472656 47.527344 75.316406 47.246094 C 75.1875 47.039062 74.945312 46.8125 74.78125 46.753906 C 74.589844 46.71875 74.394531 46.792969 74.242188 46.980469 C 74.113281 47.152344 73.90625 47.585938 73.777344 47.945312 Z M 94.289062 41.246094 L 95.714844 41.246094 L 95.710938 51.359375 C 95.710938 60.886719 95.714844 61.546875 95.792969 62.773438 C 95.847656 63.527344 95.941406 64.414062 96.023438 64.867188 C 96.097656 65.28125 96.257812 65.847656 96.378906 66.113281 C 96.492188 66.378906 96.71875 66.679688 96.871094 66.773438 C 97.035156 66.886719 97.265625 66.886719 97.429688 66.773438 C 97.582031 66.679688 97.804688 66.378906 97.921875 66.113281 C 98.042969 65.847656 98.203125 65.28125 98.277344 64.867188 C 98.359375 64.414062 98.457031 63.527344 98.507812 62.773438 C 98.585938 61.546875 98.589844 60.886719 98.589844 41.246094 L 99.992188 41.246094 L 99.984375 52.167969 C 99.980469 62.507812 99.976562 63.132812 99.898438 64.28125 C 99.851562 64.945312 99.75 65.945312 99.675781 66.492188 C 99.597656 67.054688 99.464844 67.832031 99.375 68.246094 C 99.285156 68.660156 99.09375 69.320312 98.953125 69.71875 C 98.8125 70.113281 98.542969 70.660156 98.355469 70.945312 C 98.136719 71.265625 97.851562 71.507812 97.582031 71.605469 C 97.34375 71.660156 96.957031 71.660156 96.722656 71.585938 C 96.453125 71.507812 96.160156 71.265625 95.949219 70.945312 C 95.742188 70.625 95.539062 70.214844 95.347656 69.71875 C 95.207031 69.320312 95.019531 68.660156 94.925781 68.246094 C 94.839844 67.832031 94.703125 67.054688 94.625 66.492188 C 94.554688 65.945312 94.453125 64.945312 94.40625 64.28125 C 94.320312 63.152344 94.316406 62.453125 94.304688 52.167969 Z M 94.289062 41.246094 "/>
<path style=" stroke:none;fill-rule:nonzero;fill:rgb(78.039216%,12.54902%,20.784314%);fill-opacity:1;" d="M 4.730469 64.886719 L 4.730469 71.621094 L 2.066406 71.621094 L 2.066406 76.054688 L 4.730469 76.054688 L 4.730469 89.527344 L 5.757812 89.527344 L 5.757812 76.054688 L 8.421875 76.054688 L 8.421875 71.621094 L 5.757812 71.621094 L 5.757812 58.152344 L 4.730469 58.152344 Z M 4.730469 64.886719 "/>
<path style=" stroke:none;fill-rule:nonzero;fill:rgb(12.156863%,26.666667%,49.411765%);fill-opacity:1;" d="M 15.894531 64.886719 L 15.894531 71.621094 L 13.230469 71.621094 L 13.230469 75.847656 L 15.894531 75.847656 L 15.894531 89.527344 L 16.921875 89.527344 L 16.921875 75.847656 L 19.585938 75.847656 L 19.585938 71.621094 L 16.921875 71.621094 L 16.921875 58.152344 L 15.894531 58.152344 Z M 15.894531 64.886719 "/>
<path style=" stroke:none;fill-rule:nonzero;fill:rgb(35.686275%,39.607843%,56.862745%);fill-opacity:1;" d="M 10.398438 82 L 10.398438 86.71875 L 8.59375 86.71875 L 8.59375 90.546875 L 10.398438 90.546875 L 10.398438 100 L 11.296875 100 L 11.296875 90.546875 L 13.101562 90.546875 L 13.101562 86.71875 L 11.296875 86.71875 L 11.296875 77.265625 L 10.398438 77.265625 Z M 10.398438 82 "/>
</g>
</svg>
