<?xml version="1.0" encoding="UTF-8"?>
<svg xmlns="http://www.w3.org/2000/svg" xmlns:xlink="http://www.w3.org/1999/xlink" width="300px" height="300px" viewBox="0 0 300 300" version="1.1">
<g id="surface1">
<path style=" stroke:none;fill-rule:nonzero;fill:rgb(43.921569%,60%,65.098039%);fill-opacity:1;" d="M 31.445312 13.867188 L 31.445312 27.792969 L 26.164062 27.792969 L 26.164062 36.847656 L 31.445312 36.847656 L 31.445312 64.585938 L 33.511719 64.585938 L 33.511719 36.847656 L 38.921875 36.847656 L 38.921875 27.792969 L 33.511719 27.792969 L 33.511719 0 L 31.445312 0 Z M 31.445312 13.867188 "/>
<path style=" stroke:none;fill-rule:nonzero;fill:rgb(92.156863%,56.862745%,17.254902%);fill-opacity:1;" d="M 14.191406 49.1875 L 14.191406 69.394531 L 6.199219 69.394531 L 6.199219 82.074219 L 14.191406 82.074219 L 14.191406 123.113281 L 17.152344 123.113281 L 17.152344 82.074219 L 25.265625 82.074219 L 25.265625 69.394531 L 17.152344 69.394531 L 17.152344 28.980469 L 14.191406 28.980469 Z M 14.191406 49.1875 "/>
<path style=" stroke:none;fill-rule:nonzero;fill:rgb(34.901961%,52.941176%,60.784314%);fill-opacity:1;" d="M 47.683594 49.1875 L 47.683594 69.394531 L 39.691406 69.394531 L 39.691406 82.699219 L 47.683594 82.699219 L 47.683594 123.113281 L 50.765625 123.113281 L 50.765625 82.699219 L 58.757812 82.699219 L 58.757812 69.394531 L 50.765625 69.394531 L 50.765625 28.980469 L 47.683594 28.980469 Z M 47.683594 49.1875 "/>
<path style=" stroke:none;fill-rule:evenodd;fill:rgb(12.156863%,26.666667%,49.411765%);fill-opacity:1;" d="M 193.492188 60.339844 L 197.609375 60.339844 L 197.609375 232.414062 L 193.492188 232.414062 Z M 159.414062 78.453125 L 163.601562 78.453125 L 163.601562 102.339844 C 163.601562 124.753906 163.625 126.113281 163.828125 125.832031 C 163.960938 125.605469 164.585938 124.8125 165.222656 123.960938 C 165.976562 123 166.890625 122.378906 167.863281 122.09375 C 168.964844 121.867188 169.613281 122.039062 170.429688 122.773438 C 171.125 123.394531 171.953125 124.753906 172.6875 126.453125 C 173.320312 127.925781 174.160156 130.414062 174.558594 132.054688 C 174.941406 133.640625 175.554688 136.980469 175.902344 139.472656 C 176.261719 141.960938 176.707031 145.925781 176.898438 148.359375 C 177.101562 150.734375 177.355469 155.207031 177.472656 158.320312 C 177.617188 162.394531 177.652344 165.90625 177.605469 171.453125 C 177.570312 175.585938 177.4375 180.734375 177.316406 182.886719 C 177.210938 185.039062 176.921875 188.71875 176.695312 191.039062 C 176.464844 193.359375 176.011719 196.925781 175.6875 198.90625 C 175.375 200.886719 174.738281 203.832031 174.28125 205.472656 C 173.839844 207.113281 173.023438 209.378906 172.492188 210.507812 C 171.964844 211.699219 171.089844 213.167969 170.5625 213.847656 C 169.734375 214.925781 169.207031 215.09375 166.828125 215.152344 C 164.585938 215.207031 163.855469 214.980469 162.964844 214.074219 C 162.367188 213.453125 161.371094 212.265625 160.769531 211.472656 C 160.171875 210.679688 159.640625 209.773438 159.59375 209.546875 C 159.546875 209.320312 159.484375 179.773438 159.460938 143.832031 Z M 164.632812 142.867188 L 163.675781 144.453125 L 163.675781 194.660156 C 165.691406 197.152344 166.121094 197.320312 167.464844 197.152344 C 168.785156 196.980469 169.21875 196.699219 169.855469 195.566406 C 170.273438 194.773438 170.863281 193.300781 171.136719 192.226562 C 171.425781 191.207031 171.835938 189.28125 172.050781 187.980469 C 172.265625 186.679688 172.578125 183.960938 172.734375 181.980469 C 172.902344 180 173.09375 176.207031 173.164062 173.546875 C 173.273438 169.925781 173.273438 167.433594 173.152344 163.585938 C 173.058594 160.132812 172.855469 157.019531 172.554688 154.074219 C 172.3125 151.640625 171.894531 148.640625 171.628906 147.394531 C 171.367188 146.152344 170.886719 144.394531 170.5625 143.546875 C 170.25 142.640625 169.636719 141.507812 169.207031 141 C 168.785156 140.433594 168.03125 140.039062 167.539062 140.09375 C 167.046875 140.152344 166.398438 140.433594 166.121094 140.71875 C 165.835938 141 165.175781 141.960938 164.632812 142.867188 Z M 91.21875 84.507812 L 95.335938 84.507812 L 95.335938 139.414062 L 106.410156 139.414062 L 106.410156 157.527344 L 95.335938 157.527344 L 95.335938 216.679688 L 91.21875 216.679688 L 91.21875 157.527344 L 80.140625 157.527344 L 80.140625 139.414062 L 91.21875 139.414062 Z M 91.21875 84.507812 "/>
<path style=" stroke:none;fill-rule:nonzero;fill:rgb(90.980392%,46.27451%,17.254902%);fill-opacity:1;" d="M 30.679688 118.019531 L 30.679688 140.660156 L 21.785156 140.660156 L 21.785156 157.527344 L 30.679688 157.527344 L 30.679688 202.8125 L 34.277344 202.8125 L 34.277344 157.527344 L 43.171875 157.527344 L 43.171875 140.660156 L 34.277344 140.660156 L 34.277344 95.378906 L 30.679688 95.378906 Z M 30.679688 118.019531 "/>
<path style=" stroke:none;fill-rule:nonzero;fill:rgb(35.686275%,39.607843%,56.862745%);fill-opacity:1;" d="M 56.824219 129.453125 L 56.824219 143.660156 L 51.414062 143.660156 L 51.414062 155.152344 L 56.824219 155.152344 L 56.824219 183.507812 L 59.527344 183.507812 L 59.527344 155.152344 L 64.9375 155.152344 L 64.9375 143.660156 L 59.527344 143.660156 L 59.527344 115.300781 L 56.824219 115.300781 Z M 56.824219 129.453125 "/>
<path style=" stroke:none;fill-rule:nonzero;fill:rgb(43.921569%,60%,65.098039%);fill-opacity:1;" d="M 5.296875 130.699219 L 5.296875 144.28125 L 0.0195312 144.28125 L 0.0195312 153.90625 L 5.296875 153.90625 L 5.296875 181.074219 L 7.363281 181.074219 L 7.363281 153.90625 L 12.773438 153 L 12.773438 144.28125 L 7.363281 144.28125 L 7.363281 117.113281 L 5.296875 117.113281 Z M 5.296875 130.699219 "/>
<path style=" stroke:none;fill-rule:evenodd;fill:rgb(12.156863%,26.666667%,49.411765%);fill-opacity:1;" d="M 135.402344 121.300781 L 139.519531 121.300781 L 139.519531 157.074219 C 139.519531 176.773438 139.46875 196.753906 139.324219 210.113281 L 138.292969 211.585938 C 137.730469 212.378906 136.542969 213.621094 135.652344 214.359375 C 134.296875 215.433594 133.6875 215.546875 131.730469 215.320312 C 129.917969 215.09375 129.1875 214.753906 128.382812 213.792969 C 127.804688 213.054688 126.820312 211.300781 126.1875 209.832031 C 125.515625 208.246094 124.710938 205.753906 124.253906 203.886719 C 123.835938 202.074219 123.234375 198.847656 122.945312 196.753906 C 122.644531 194.605469 122.25 191.207031 122.082031 189.226562 C 121.914062 187.246094 121.660156 183.28125 121.542969 180.507812 C 121.375 176.433594 121.339844 173.433594 121.386719 166.300781 C 121.445312 159.453125 121.53125 156.113281 121.734375 152.71875 C 121.890625 150.226562 122.25 146.152344 122.527344 143.660156 C 122.800781 141.167969 123.355469 137.378906 123.761719 135.28125 C 124.183594 133.132812 124.867188 130.300781 125.285156 128.945312 C 125.707031 127.640625 126.402344 125.886719 126.835938 125.09375 C 127.253906 124.300781 128.023438 123.226562 128.539062 122.773438 C 129.054688 122.320312 130.015625 121.925781 130.660156 121.925781 C 131.320312 121.925781 132.257812 122.378906 132.761719 122.832031 C 133.253906 123.339844 134.035156 124.585938 134.503906 125.605469 C 134.957031 126.566406 135.355469 127.414062 135.367188 127.359375 C 135.378906 127.359375 135.402344 126 135.402344 124.359375 Z M 128.394531 143.546875 C 128.046875 144.453125 127.542969 146.320312 127.265625 147.734375 C 126.988281 149.152344 126.617188 151.640625 126.449219 153.339844 C 126.269531 154.980469 126.042969 158.039062 125.933594 160.132812 C 125.824219 162.167969 125.742188 165.90625 125.742188 168.394531 C 125.742188 170.886719 125.800781 174.566406 125.875 176.546875 C 125.957031 178.527344 126.175781 181.8125 126.378906 183.792969 C 126.617188 186.167969 127.003906 188.605469 127.492188 190.753906 C 127.972656 192.847656 128.539062 194.605469 129.03125 195.507812 C 129.628906 196.640625 130.109375 196.980469 131.347656 197.265625 C 132.222656 197.433594 133.324219 197.207031 133.914062 196.8125 C 134.476562 196.414062 135.007812 195.90625 135.089844 195.679688 C 135.1875 195.394531 135.257812 187.527344 135.316406 170.660156 L 135.402344 146.09375 C 134.347656 143.378906 133.757812 142.132812 133.398438 141.566406 C 133.050781 140.945312 132.234375 140.378906 131.597656 140.265625 C 130.804688 140.09375 130.21875 140.320312 129.726562 141 C 129.34375 141.507812 128.742188 142.640625 128.394531 143.546875 Z M 262.792969 121.300781 L 266.910156 121.300781 L 266.910156 151.640625 C 266.910156 168.339844 266.875 188.320312 266.71875 210.113281 L 265.6875 211.585938 C 265.121094 212.378906 263.980469 213.621094 263.140625 214.246094 C 262.074219 215.152344 261.054688 215.492188 259.675781 215.492188 C 258.582031 215.492188 257.320312 215.207031 256.867188 214.867188 C 256.410156 214.472656 255.511719 213.394531 254.875 212.433594 C 254.191406 211.414062 253.300781 209.433594 252.75 207.734375 C 252.210938 206.09375 251.464844 203.207031 251.082031 201.226562 C 250.710938 199.300781 250.183594 195.90625 249.929688 193.753906 C 249.679688 191.605469 249.328125 187.640625 249.160156 185.039062 C 248.910156 181.246094 248.839844 178.300781 248.777344 171.453125 C 248.742188 165.960938 248.777344 161.09375 248.875 158.433594 C 248.957031 156.113281 249.175781 152.207031 249.355469 149.71875 C 249.523438 147.226562 249.917969 143.265625 250.230469 140.945312 C 250.53125 138.621094 251.179688 134.945312 251.671875 132.792969 C 252.222656 130.414062 252.941406 127.980469 253.53125 126.621094 C 254.058594 125.433594 254.824219 123.960938 255.257812 123.394531 C 255.679688 122.886719 256.722656 122.265625 257.574219 122.09375 C 258.714844 121.867188 259.375 122.09375 260.082031 122.773438 C 260.621094 123.339844 261.425781 124.585938 261.894531 125.605469 C 262.351562 126.566406 262.746094 127.414062 262.757812 127.359375 C 262.78125 127.359375 262.792969 126 262.792969 124.359375 Z M 255.785156 143.546875 C 255.4375 144.453125 254.933594 146.320312 254.65625 147.734375 C 254.382812 149.152344 254.023438 151.640625 253.84375 153.339844 C 253.660156 154.980469 253.433594 158.039062 253.324219 160.132812 C 253.21875 162.167969 253.132812 166.1875 253.132812 169.019531 C 253.132812 171.847656 253.21875 175.867188 253.324219 177.90625 C 253.433594 180 253.636719 182.832031 253.792969 184.246094 C 253.949219 185.660156 254.347656 188.152344 254.671875 189.734375 C 254.992188 191.378906 255.523438 193.300781 255.835938 194.039062 C 256.15625 194.832031 256.734375 195.90625 257.128906 196.414062 C 257.574219 197.039062 258.304688 197.378906 259.15625 197.378906 C 259.878906 197.378906 260.898438 197.09375 261.402344 196.753906 C 261.917969 196.414062 262.410156 195.90625 262.480469 195.679688 C 262.589844 195.394531 262.648438 188.09375 262.6875 170.605469 L 262.722656 145.867188 C 261.425781 142.753906 260.707031 141.453125 260.273438 140.945312 C 259.855469 140.433594 259.132812 140.039062 258.664062 140.09375 C 258.210938 140.09375 257.515625 140.546875 257.128906 141 C 256.734375 141.507812 256.132812 142.640625 255.785156 143.546875 Z M 224.152344 122.207031 C 224.898438 122.378906 225.847656 122.945312 226.277344 123.453125 C 226.699219 123.960938 227.394531 125.152344 227.8125 126.113281 C 228.246094 127.019531 228.941406 129 229.363281 130.527344 C 229.792969 132.054688 230.394531 134.886719 230.707031 136.8125 C 231.019531 138.734375 231.460938 142.246094 231.703125 144.566406 C 231.941406 146.886719 232.253906 150.960938 232.398438 153.621094 C 232.542969 156.28125 232.710938 161.660156 232.84375 172.640625 L 218.609375 172.640625 L 218.695312 174.90625 C 218.730469 176.152344 218.886719 178.8125 219.007812 180.792969 C 219.136719 182.773438 219.472656 185.886719 219.738281 187.640625 C 220.003906 189.394531 220.398438 191.492188 220.601562 192.226562 C 220.816406 192.960938 221.25 194.207031 221.574219 195 C 221.886719 195.734375 222.4375 196.699219 222.796875 197.152344 C 223.15625 197.605469 224.117188 198 224.980469 198 C 225.835938 198 227.058594 197.605469 227.695312 197.09375 C 228.328125 196.585938 229.230469 195.566406 229.6875 194.886719 C 230.140625 194.207031 230.742188 193.132812 231.007812 192.507812 C 231.269531 191.886719 231.546875 191.320312 231.617188 191.320312 C 231.703125 191.320312 231.75 194.773438 231.75 209.433594 L 231.042969 210.960938 C 230.644531 211.8125 229.828125 213.167969 229.207031 214.019531 C 228.582031 214.8125 227.441406 215.832031 226.660156 216.226562 C 225.59375 216.734375 224.875 216.734375 223.757812 216.226562 C 222.941406 215.832031 221.753906 214.8125 221.117188 213.960938 C 220.480469 213.113281 219.558594 211.414062 219.078125 210.167969 C 218.585938 208.925781 217.757812 206.039062 217.230469 203.71875 C 216.691406 201.394531 216.019531 197.605469 215.707031 195.28125 C 215.394531 192.960938 215.011719 189 214.828125 186.507812 C 214.648438 184.019531 214.433594 179.660156 214.351562 176.886719 C 214.253906 173.773438 214.230469 169.414062 214.277344 166.019531 C 214.3125 162.847656 214.46875 158.09375 214.613281 155.433594 C 214.757812 152.773438 215.105469 148.414062 215.382812 145.753906 C 215.65625 143.09375 216.175781 139.300781 216.511719 137.320312 C 216.859375 135.339844 217.542969 132.28125 218.035156 130.527344 C 218.527344 128.773438 219.355469 126.566406 219.871094 125.546875 C 220.496094 124.378906 221.140625 123.46875 221.800781 122.832031 C 222.460938 122.265625 223.253906 122.039062 224.152344 122.207031 Z M 221.335938 143.832031 C 220.949219 144.90625 220.410156 147 220.121094 148.472656 C 219.847656 150 219.472656 152.492188 219.304688 154.074219 C 219.136719 155.660156 218.992188 157.1875 218.992188 157.527344 C 218.992188 157.925781 220.613281 158.152344 223.601562 158.152344 L 228.210938 158.152344 C 228.078125 153.679688 227.957031 151.472656 227.863281 150.28125 C 227.753906 149.152344 227.441406 147 227.164062 145.585938 C 226.828125 143.832031 226.421875 142.585938 225.953125 141.734375 C 225.558594 141.113281 224.839844 140.433594 224.347656 140.265625 C 223.769531 140.152344 223.183594 140.378906 222.726562 140.945312 C 222.34375 141.453125 221.71875 142.753906 221.335938 143.832031 Z M 282.871094 123.734375 L 287.140625 123.734375 L 287.128906 154.074219 C 287.128906 182.660156 287.140625 184.640625 287.382812 188.320312 C 287.539062 190.585938 287.824219 193.246094 288.066406 194.605469 C 288.292969 195.847656 288.773438 197.546875 289.132812 198.339844 C 289.480469 199.132812 290.152344 200.039062 290.609375 200.320312 C 291.101562 200.660156 291.796875 200.660156 292.289062 200.320312 C 292.746094 200.039062 293.417969 199.132812 293.765625 198.339844 C 294.125 197.546875 294.605469 195.847656 294.835938 194.605469 C 295.074219 193.246094 295.375 190.585938 295.519531 188.320312 C 295.757812 184.640625 295.769531 182.660156 295.769531 123.734375 L 299.980469 123.734375 L 299.957031 156.507812 C 299.945312 187.527344 299.933594 189.394531 299.695312 192.847656 C 299.550781 194.832031 299.25 197.832031 299.023438 199.472656 C 298.792969 201.167969 298.398438 203.492188 298.121094 204.734375 C 297.859375 205.980469 297.28125 207.960938 296.863281 209.152344 C 296.441406 210.339844 295.625 211.980469 295.0625 212.832031 C 294.414062 213.792969 293.550781 214.527344 292.746094 214.8125 C 292.027344 214.980469 290.875 214.980469 290.164062 214.753906 C 289.363281 214.527344 288.484375 213.792969 287.851562 212.832031 C 287.222656 211.875 286.617188 210.640625 286.039062 209.152344 C 285.617188 207.960938 285.054688 205.980469 284.777344 204.734375 C 284.515625 203.492188 284.105469 201.167969 283.878906 199.472656 C 283.660156 197.832031 283.363281 194.832031 283.21875 192.847656 C 282.964844 189.453125 282.953125 187.359375 282.917969 156.507812 Z M 282.871094 123.734375 "/>
<path style=" stroke:none;fill-rule:nonzero;fill:rgb(78.039216%,12.54902%,20.784314%);fill-opacity:1;" d="M 14.191406 194.660156 L 14.191406 214.867188 L 6.199219 214.867188 L 6.199219 228.167969 L 14.191406 228.167969 L 14.191406 268.585938 L 17.273438 268.585938 L 17.273438 228.167969 L 25.265625 228.167969 L 25.265625 214.867188 L 17.273438 214.867188 L 17.273438 174.453125 L 14.191406 174.453125 Z M 14.191406 194.660156 "/>
<path style=" stroke:none;fill-rule:nonzero;fill:rgb(12.156863%,26.666667%,49.411765%);fill-opacity:1;" d="M 47.683594 194.660156 L 47.683594 214.867188 L 39.691406 214.867188 L 39.691406 227.546875 L 47.683594 227.546875 L 47.683594 268.585938 L 50.765625 268.585938 L 50.765625 227.546875 L 58.757812 227.546875 L 58.757812 214.867188 L 50.765625 214.867188 L 50.765625 174.453125 L 47.683594 174.453125 Z M 47.683594 194.660156 "/>
<path style=" stroke:none;fill-rule:nonzero;fill:rgb(35.686275%,39.607843%,56.862745%);fill-opacity:1;" d="M 31.195312 246 L 31.195312 260.152344 L 25.78125 260.152344 L 25.78125 271.640625 L 31.195312 271.640625 L 31.195312 300 L 33.894531 300 L 33.894531 271.640625 L 39.304688 271.640625 L 39.304688 260.152344 L 33.894531 260.152344 L 33.894531 231.792969 L 31.195312 231.792969 Z M 31.195312 246 "/>
</g>
</svg>
