<?xml version="1.0" standalone="no"?>
<!DOCTYPE svg PUBLIC "-//W3C//DTD SVG 20010904//EN"
 "http://www.w3.org/TR/2001/REC-SVG-20010904/DTD/svg10.dtd">
<svg version="1.0" xmlns="http://www.w3.org/2000/svg"
 width="1032.000000pt" height="300.000000pt" viewBox="0 0 1032.000000 300.000000"
 preserveAspectRatio="xMidYMid meet">

<g transform="translate(0.000000,300.000000) scale(0.100000,-0.100000)"
fill="#000000" stroke="none">
<path d="M3272 1840 c-47 -29 -55 -59 -48 -171 7 -104 -2 -129 -45 -129 -15 0
-19 -7 -19 -36 0 -30 4 -37 30 -45 35 -13 33 -4 34 -146 1 -108 2 -113 28
-139 21 -21 39 -28 82 -32 l56 -4 0 33 c0 28 -6 36 -33 49 l-32 15 -1 90 c-1
126 -1 124 -35 156 -22 20 -26 29 -15 29 8 0 23 12 33 27 14 22 17 45 15 121
-3 102 4 122 44 122 21 0 24 5 24 40 l0 40 -42 0 c-25 0 -57 -8 -76 -20z"/>
<path d="M6930 1821 c0 -37 3 -41 24 -41 41 0 49 -22 43 -112 -6 -94 8 -143
45 -157 l22 -8 -22 -12 c-37 -20 -46 -50 -47 -156 l0 -100 -32 -15 c-27 -13
-33 -21 -33 -49 l0 -33 57 4 c48 4 61 10 86 38 l30 33 -6 106 c-4 58 -3 111 1
118 4 6 20 16 35 22 22 9 27 17 27 46 0 28 -4 35 -19 35 -44 0 -52 24 -45 139
l7 108 -30 33 c-25 28 -38 34 -86 38 l-57 4 0 -41z"/>
<path d="M4610 1801 c-111 -24 -175 -112 -149 -206 15 -54 64 -97 146 -129
103 -42 135 -82 113 -141 -19 -51 -103 -68 -199 -39 -29 8 -55 14 -57 11 -2
-2 -5 -21 -7 -42 -2 -35 1 -39 33 -51 43 -15 162 -18 212 -4 102 29 155 137
114 234 -18 42 -64 77 -145 110 -36 14 -75 36 -88 48 -31 29 -30 72 3 105 23
23 30 25 92 20 37 -3 75 -7 86 -9 14 -2 22 7 32 34 13 37 12 37 -19 47 -47 15
-127 21 -167 12z"/>
<path d="M3518 1793 l-28 -4 0 -300 0 -299 50 0 50 0 0 125 0 125 53 0 c86 0
98 -15 138 -167 l21 -83 52 0 53 0 -27 103 c-31 118 -40 138 -75 165 -28 22
-32 32 -12 32 18 0 74 60 86 93 27 71 -4 154 -71 188 -36 19 -62 23 -153 25
-60 1 -122 0 -137 -3z m225 -85 c32 -17 50 -74 36 -115 -16 -49 -60 -73 -131
-73 l-58 0 0 99 c0 95 1 100 23 104 29 7 107 -2 130 -15z"/>
<path d="M4010 1495 l0 -305 180 0 180 0 0 45 0 45 -130 0 -130 0 0 90 0 90
115 0 115 0 0 45 0 45 -115 0 -115 0 0 80 0 80 120 0 120 0 0 45 0 45 -170 0
-170 0 0 -305z"/>
<path d="M4880 1755 l0 -45 90 0 90 0 0 -260 0 -260 50 0 50 0 0 260 0 260 90
0 90 0 0 45 0 45 -230 0 -230 0 0 -45z"/>
<path d="M5797 1793 c-3 -4 -46 -138 -97 -298 -51 -159 -94 -293 -97 -297 -2
-5 21 -8 51 -8 l55 0 27 90 27 91 101 -3 100 -3 27 -85 26 -85 56 -3 c31 -2
57 -2 57 0 0 2 -45 138 -98 303 l-98 300 -66 3 c-37 2 -68 -1 -71 -5z m102
-196 c52 -175 57 -157 -38 -157 -44 0 -81 2 -81 4 0 2 13 47 29 99 17 53 33
112 37 131 3 20 9 36 13 36 3 0 21 -51 40 -113z"/>
<path d="M6248 1793 l-28 -4 0 -300 0 -299 55 0 55 0 0 115 0 115 53 0 c128 0
216 56 236 150 22 103 -25 186 -122 215 -47 14 -181 18 -249 8z m222 -88 c37
-19 50 -43 50 -92 0 -71 -52 -113 -140 -113 l-50 0 0 110 0 110 55 0 c31 0 69
-7 85 -15z"/>
<path d="M6730 1495 l0 -305 55 0 55 0 0 305 0 305 -55 0 -55 0 0 -305z"/>
<path d="M5430 1677 c-53 -27 -48 -123 9 -147 84 -34 151 71 86 135 -27 28
-57 31 -95 12z"/>
<path d="M5444 1390 c-55 -22 -70 -95 -29 -135 51 -52 135 -15 135 60 0 33
-27 75 -49 75 -5 0 -15 2 -23 4 -7 3 -23 1 -34 -4z"/>
</g>
</svg>
